# xmcd
#
# Track frame offsets: 
#        150
#        19172
#        44289
#        66014
#
# Disc length: 1134 seconds
#
# Revision: 0
# Processed by: cddbd v1.5.2PL0 Copyright (c) Steve Scherf et al.
# Submitted via: ExactAudioCopyFreeDBPlugin 1.0
#
DISCID=2c046c04
DTITLE=はな / 空気力学少女と少年の詩
DYEAR=2010
DGENRE=Soundtrack
TTITLE0=空気力学少女と少年の詩
TTITLE1=終末の微笑
TTITLE2=呪われた生／祝福された生
TTITLE3=空気力学少女と少年の詩－ＰｉａｎｏＶｏｃａｌ　ｖｅｒ．－
EXTD=
EXTT0=
EXTT1=
EXTT2=
EXTT3=
PLAYORDER=
